<?xml version="1.0" encoding="UTF-8" standalone="no"?>
<!-- Created with Inkscape (http://www.inkscape.org/) -->

<svg
   xmlns:dc="http://purl.org/dc/elements/1.1/"
   xmlns:cc="http://creativecommons.org/ns#"
   xmlns:rdf="http://www.w3.org/1999/02/22-rdf-syntax-ns#"
   xmlns:svg="http://www.w3.org/2000/svg"
   xmlns="http://www.w3.org/2000/svg"
   xmlns:sodipodi="http://sodipodi.sourceforge.net/DTD/sodipodi-0.dtd"
   xmlns:inkscape="http://www.inkscape.org/namespaces/inkscape"
   id="svg3336"
   version="1.1"
   inkscape:version="0.91 r13725"
   xml:space="preserve"
   width="289"
   height="289"
   viewBox="0 0 289 289"
   sodipodi:docname="logo.svg"><metadata
     id="metadata3342"><rdf:RDF><cc:Work
         rdf:about=""><dc:format>image/svg+xml</dc:format><dc:type
           rdf:resource="http://purl.org/dc/dcmitype/StillImage" /><dc:title /></cc:Work></rdf:RDF></metadata><defs
     id="defs3340"><clipPath
       clipPathUnits="userSpaceOnUse"
       id="clipPath3350"><path
         d="M 0,300 500,300 500,0 0,0 0,300 Z"
         id="path3352"
         inkscape:connector-curvature="0" /></clipPath></defs><sodipodi:namedview
     pagecolor="#ffffff"
     bordercolor="#666666"
     borderopacity="1"
     objecttolerance="10"
     gridtolerance="10"
     guidetolerance="10"
     inkscape:pageopacity="0"
     inkscape:pageshadow="2"
     inkscape:window-width="1366"
     inkscape:window-height="705"
     id="namedview3338"
     showgrid="false"
     inkscape:zoom="1.4293333"
     inkscape:cx="195.88954"
     inkscape:cy="91.647136"
     inkscape:window-x="-8"
     inkscape:window-y="-8"
     inkscape:window-maximized="1"
     inkscape:current-layer="g3348" /><g
     id="g3344"
     inkscape:groupmode="layer"
     inkscape:label="free_logo_2"
     transform="matrix(1.25,0,0,-1.25,0,289)"><g
       id="g3346"><g
         id="g3348"
         clip-path="url(#clipPath3350)"
         transform="matrix(-0.01582937,-0.99987471,0.99987471,-0.01582937,-29.903208,362.88055)"><g
           id="g3354"
           transform="translate(241.9502,123.7998)"
           style="fill:#2196f3;fill-opacity:1"><path
             d="M 0,0 -61.7,-35.8 -36.9,21.45 0,0 Z M 8.899,99.45 67.35,-35.8 -35.8,24.15 -3.25,99.45 c 2.033,2 4.05,2.834 6.05,2.5 2.033,0.367 4.067,-0.467 6.099,-2.5"
             style="fill:#2196f3;fill-opacity:1;fill-rule:evenodd;stroke:none"
             id="path3356"
             inkscape:connector-curvature="0" /></g><g
           id="g3358"
           transform="translate(320.5996,224.7998)"
           style="stroke:#2196f3;stroke-opacity:1"><path
             d="m 0,0 c 20.9,-20.9 31.351,-46.1 31.351,-75.6 0,-29.533 -10.451,-54.75 -31.351,-75.65 -20.899,-20.899 -46.116,-31.35 -75.649,-31.35 -29.5,0 -54.701,10.451 -75.601,31.35 -20.899,20.9 -31.35,46.117 -31.35,75.65 0,29.5 10.451,54.7 31.35,75.6 20.9,20.9 46.101,31.35 75.601,31.35 C -46.116,31.35 -20.899,20.9 0,0 Z"
             style="fill:none;stroke:#2196f3;stroke-width:12;stroke-linecap:round;stroke-linejoin:round;stroke-miterlimit:3;stroke-dasharray:none;stroke-opacity:1"
             id="path3360"
             inkscape:connector-curvature="0" /></g></g></g></g></svg>